<mxfile host="app.diagrams.net" modified="2023-05-18T07:22:22.064Z" agent="Mozilla/5.0 (X11; Ubuntu; Linux x86_64; rv:109.0) Gecko/20100101 Firefox/113.0" etag="_HT5HIf556iQD3KRV15b" version="21.2.9" type="device" pages="3">
  <diagram name="text_sampling" id="WroFD1hm8cYtH9InglmM">
    <mxGraphModel dx="1509" dy="699" grid="1" gridSize="10" guides="1" tooltips="1" connect="1" arrows="1" fold="1" page="1" pageScale="1" pageWidth="1800" pageHeight="1500" math="0" shadow="0">
      <root>
        <mxCell id="0" />
        <mxCell id="1" parent="0" />
        <mxCell id="6hANDe1LfJOE-iJplE4u-136" value="" style="rounded=1;whiteSpace=wrap;html=1;fillColor=#f7f7f7;fontColor=#333333;strokeColor=none;fontSize=28;movable=1;resizable=1;rotatable=1;deletable=1;editable=1;locked=0;connectable=1;" vertex="1" parent="1">
          <mxGeometry x="860" y="107.5" width="520" height="972.5" as="geometry" />
        </mxCell>
        <mxCell id="6hANDe1LfJOE-iJplE4u-134" value="" style="rounded=1;whiteSpace=wrap;html=1;fillColor=#f7f7f7;fontColor=#333333;strokeColor=none;movable=1;resizable=1;rotatable=1;deletable=1;editable=1;locked=0;connectable=1;" vertex="1" parent="1">
          <mxGeometry x="270" y="107.5" width="570" height="972.5" as="geometry" />
        </mxCell>
        <mxCell id="6hANDe1LfJOE-iJplE4u-148" style="edgeStyle=orthogonalEdgeStyle;rounded=1;orthogonalLoop=1;jettySize=auto;html=1;exitX=0.5;exitY=1;exitDx=0;exitDy=0;strokeWidth=2;" edge="1" parent="1" target="6hANDe1LfJOE-iJplE4u-11">
          <mxGeometry relative="1" as="geometry">
            <mxPoint x="516" y="386.5" as="sourcePoint" />
            <Array as="points">
              <mxPoint x="516" y="429.5" />
              <mxPoint x="661" y="429.5" />
            </Array>
          </mxGeometry>
        </mxCell>
        <mxCell id="6hANDe1LfJOE-iJplE4u-149" style="edgeStyle=orthogonalEdgeStyle;rounded=1;orthogonalLoop=1;jettySize=auto;html=1;exitX=0.5;exitY=1;exitDx=0;exitDy=0;strokeWidth=2;" edge="1" parent="1" target="6hANDe1LfJOE-iJplE4u-9">
          <mxGeometry relative="1" as="geometry">
            <mxPoint x="516" y="386.5" as="sourcePoint" />
            <Array as="points">
              <mxPoint x="516" y="429.5" />
              <mxPoint x="371" y="429.5" />
            </Array>
          </mxGeometry>
        </mxCell>
        <mxCell id="6hANDe1LfJOE-iJplE4u-150" style="edgeStyle=orthogonalEdgeStyle;rounded=0;orthogonalLoop=1;jettySize=auto;html=1;strokeWidth=2;" edge="1" parent="1" source="6hANDe1LfJOE-iJplE4u-1" target="6hANDe1LfJOE-iJplE4u-10">
          <mxGeometry relative="1" as="geometry">
            <mxPoint x="516" y="386.5" as="sourcePoint" />
          </mxGeometry>
        </mxCell>
        <mxCell id="6hANDe1LfJOE-iJplE4u-1" value="&lt;div style=&quot;font-size: 26px;&quot;&gt;&lt;font style=&quot;font-size: 26px;&quot;&gt;commitment&lt;/font&gt;&lt;/div&gt;&lt;div style=&quot;font-size: 26px;&quot;&gt;&lt;font style=&quot;font-size: 26px;&quot;&gt;bravery&lt;/font&gt;&lt;/div&gt;&lt;div style=&quot;font-size: 26px;&quot;&gt;&lt;font style=&quot;font-size: 26px;&quot;&gt;mistreatment&lt;/font&gt;&lt;/div&gt;&lt;div style=&quot;font-size: 26px;&quot;&gt;&lt;font style=&quot;font-size: 26px;&quot;&gt;flags&lt;/font&gt;&lt;/div&gt;&lt;div style=&quot;font-size: 26px;&quot;&gt;&lt;font style=&quot;font-size: 26px;&quot;&gt;economy&lt;/font&gt;&lt;/div&gt;" style="rounded=1;whiteSpace=wrap;html=1;fontSize=22;fillColor=#E6E6E6;strokeColor=none;" vertex="1" parent="1">
          <mxGeometry x="421" y="185" width="190" height="177" as="geometry" />
        </mxCell>
        <mxCell id="6hANDe1LfJOE-iJplE4u-2" value="&lt;b style=&quot;font-size: 28px;&quot;&gt;Linguistic &lt;br&gt;properties&lt;br style=&quot;font-size: 28px;&quot;&gt;&lt;/b&gt;" style="text;html=1;align=center;verticalAlign=middle;resizable=0;points=[];autosize=1;strokeColor=none;fillColor=none;fontSize=28;" vertex="1" parent="1">
          <mxGeometry x="616" y="224" width="160" height="80" as="geometry" />
        </mxCell>
        <mxCell id="6hANDe1LfJOE-iJplE4u-9" value="bravery" style="text;html=1;align=center;verticalAlign=middle;resizable=0;points=[];autosize=1;strokeColor=none;fillColor=none;fontSize=28;fontStyle=1;fontColor=#000099;" vertex="1" parent="1">
          <mxGeometry x="311" y="466.5" width="120" height="50" as="geometry" />
        </mxCell>
        <mxCell id="6hANDe1LfJOE-iJplE4u-10" value="&lt;font style=&quot;font-size: 28px;&quot; color=&quot;#990099&quot;&gt;economy&lt;/font&gt;" style="text;html=1;align=center;verticalAlign=middle;resizable=0;points=[];autosize=1;strokeColor=none;fillColor=none;fontSize=28;fontStyle=1" vertex="1" parent="1">
          <mxGeometry x="441" y="466.5" width="150" height="50" as="geometry" />
        </mxCell>
        <mxCell id="6hANDe1LfJOE-iJplE4u-11" value="flags" style="text;html=1;align=center;verticalAlign=middle;resizable=0;points=[];autosize=1;strokeColor=none;fillColor=none;fontSize=28;fontStyle=1;fontColor=#CC0066;" vertex="1" parent="1">
          <mxGeometry x="616" y="466.5" width="90" height="50" as="geometry" />
        </mxCell>
        <mxCell id="6hANDe1LfJOE-iJplE4u-79" style="edgeStyle=orthogonalEdgeStyle;rounded=0;orthogonalLoop=1;jettySize=auto;html=1;exitX=0.5;exitY=1;exitDx=0;exitDy=0;strokeWidth=2;" edge="1" parent="1" source="6hANDe1LfJOE-iJplE4u-12">
          <mxGeometry relative="1" as="geometry">
            <mxPoint x="370" y="735" as="targetPoint" />
          </mxGeometry>
        </mxCell>
        <mxCell id="6hANDe1LfJOE-iJplE4u-12" value="" style="rounded=1;whiteSpace=wrap;html=1;align=center;fontSize=13;fillColor=#EBEBFF;strokeColor=none;" vertex="1" parent="1">
          <mxGeometry x="306" y="506.5" width="130" height="142" as="geometry" />
        </mxCell>
        <mxCell id="6hANDe1LfJOE-iJplE4u-80" style="edgeStyle=orthogonalEdgeStyle;rounded=0;orthogonalLoop=1;jettySize=auto;html=1;exitX=0.5;exitY=1;exitDx=0;exitDy=0;strokeWidth=2;" edge="1" parent="1" source="6hANDe1LfJOE-iJplE4u-14">
          <mxGeometry relative="1" as="geometry">
            <mxPoint x="516" y="735" as="targetPoint" />
          </mxGeometry>
        </mxCell>
        <mxCell id="6hANDe1LfJOE-iJplE4u-14" value="" style="rounded=1;whiteSpace=wrap;html=1;align=center;fontSize=13;fillColor=#F5EBFF;strokeColor=none;" vertex="1" parent="1">
          <mxGeometry x="451" y="506.5" width="130" height="142" as="geometry" />
        </mxCell>
        <mxCell id="6hANDe1LfJOE-iJplE4u-81" style="edgeStyle=orthogonalEdgeStyle;rounded=0;orthogonalLoop=1;jettySize=auto;html=1;exitX=0.5;exitY=1;exitDx=0;exitDy=0;strokeWidth=2;" edge="1" parent="1" source="6hANDe1LfJOE-iJplE4u-15">
          <mxGeometry relative="1" as="geometry">
            <mxPoint x="660" y="735" as="targetPoint" />
          </mxGeometry>
        </mxCell>
        <mxCell id="6hANDe1LfJOE-iJplE4u-15" value="" style="rounded=1;whiteSpace=wrap;html=1;align=center;fontSize=13;fillColor=#FEEBFF;strokeColor=none;" vertex="1" parent="1">
          <mxGeometry x="596" y="506.5" width="130" height="142" as="geometry" />
        </mxCell>
        <mxCell id="6hANDe1LfJOE-iJplE4u-26" value="&lt;span style=&quot;font-size: 28px;&quot;&gt;Sample properties&lt;/span&gt;" style="text;html=1;align=center;verticalAlign=middle;resizable=0;points=[];autosize=1;strokeColor=none;fillColor=none;fontSize=28;fontStyle=1" vertex="1" parent="1">
          <mxGeometry x="526" y="381.5" width="270" height="50" as="geometry" />
        </mxCell>
        <mxCell id="6hANDe1LfJOE-iJplE4u-43" value="" style="shape=tape;whiteSpace=wrap;html=1;strokeWidth=2;size=0.8;strokeColor=none;fillColor=#000099;" vertex="1" parent="1">
          <mxGeometry x="321" y="610" width="100" height="15" as="geometry" />
        </mxCell>
        <mxCell id="6hANDe1LfJOE-iJplE4u-46" value="" style="shape=tape;whiteSpace=wrap;html=1;strokeWidth=2;size=0.8;strokeColor=none;fillColor=#000099;" vertex="1" parent="1">
          <mxGeometry x="321" y="590" width="100" height="15" as="geometry" />
        </mxCell>
        <mxCell id="6hANDe1LfJOE-iJplE4u-49" value="" style="shape=tape;whiteSpace=wrap;html=1;strokeWidth=2;size=0.8;strokeColor=none;fillColor=#000099;" vertex="1" parent="1">
          <mxGeometry x="321" y="570" width="100" height="15" as="geometry" />
        </mxCell>
        <mxCell id="6hANDe1LfJOE-iJplE4u-50" value="" style="shape=tape;whiteSpace=wrap;html=1;strokeWidth=2;size=0.8;strokeColor=none;fillColor=#000099;" vertex="1" parent="1">
          <mxGeometry x="321" y="550" width="100" height="15" as="geometry" />
        </mxCell>
        <mxCell id="6hANDe1LfJOE-iJplE4u-51" value="" style="shape=tape;whiteSpace=wrap;html=1;strokeWidth=2;size=0.8;strokeColor=none;fillColor=#000099;" vertex="1" parent="1">
          <mxGeometry x="321" y="530" width="100" height="15" as="geometry" />
        </mxCell>
        <mxCell id="6hANDe1LfJOE-iJplE4u-57" value="" style="shape=tape;whiteSpace=wrap;html=1;strokeWidth=2;size=0.8;strokeColor=none;fillColor=#990099;" vertex="1" parent="1">
          <mxGeometry x="466" y="610" width="100" height="15" as="geometry" />
        </mxCell>
        <mxCell id="6hANDe1LfJOE-iJplE4u-58" value="" style="shape=tape;whiteSpace=wrap;html=1;strokeWidth=2;size=0.8;strokeColor=none;fillColor=#990099;" vertex="1" parent="1">
          <mxGeometry x="466" y="590" width="100" height="15" as="geometry" />
        </mxCell>
        <mxCell id="6hANDe1LfJOE-iJplE4u-59" value="" style="shape=tape;whiteSpace=wrap;html=1;strokeWidth=2;size=0.8;strokeColor=none;fillColor=#990099;" vertex="1" parent="1">
          <mxGeometry x="466" y="570" width="100" height="15" as="geometry" />
        </mxCell>
        <mxCell id="6hANDe1LfJOE-iJplE4u-60" value="" style="shape=tape;whiteSpace=wrap;html=1;strokeWidth=2;size=0.8;strokeColor=none;fillColor=#990099;" vertex="1" parent="1">
          <mxGeometry x="466" y="550" width="100" height="15" as="geometry" />
        </mxCell>
        <mxCell id="6hANDe1LfJOE-iJplE4u-61" value="" style="shape=tape;whiteSpace=wrap;html=1;strokeWidth=2;size=0.8;strokeColor=none;fillColor=#990099;" vertex="1" parent="1">
          <mxGeometry x="466" y="530" width="100" height="15" as="geometry" />
        </mxCell>
        <mxCell id="6hANDe1LfJOE-iJplE4u-62" value="" style="shape=tape;whiteSpace=wrap;html=1;strokeWidth=2;size=0.8;strokeColor=none;fillColor=#CC0066;" vertex="1" parent="1">
          <mxGeometry x="611" y="610" width="100" height="15" as="geometry" />
        </mxCell>
        <mxCell id="6hANDe1LfJOE-iJplE4u-63" value="" style="shape=tape;whiteSpace=wrap;html=1;strokeWidth=2;size=0.8;strokeColor=none;fillColor=#CC0066;" vertex="1" parent="1">
          <mxGeometry x="611" y="590" width="100" height="15" as="geometry" />
        </mxCell>
        <mxCell id="6hANDe1LfJOE-iJplE4u-64" value="" style="shape=tape;whiteSpace=wrap;html=1;strokeWidth=2;size=0.8;strokeColor=none;fillColor=#CC0066;" vertex="1" parent="1">
          <mxGeometry x="611" y="570" width="100" height="15" as="geometry" />
        </mxCell>
        <mxCell id="6hANDe1LfJOE-iJplE4u-65" value="" style="shape=tape;whiteSpace=wrap;html=1;strokeWidth=2;size=0.8;strokeColor=none;fillColor=#CC0066;" vertex="1" parent="1">
          <mxGeometry x="611" y="550" width="100" height="15" as="geometry" />
        </mxCell>
        <mxCell id="6hANDe1LfJOE-iJplE4u-66" value="" style="shape=tape;whiteSpace=wrap;html=1;strokeWidth=2;size=0.8;strokeColor=none;fillColor=#CC0066;" vertex="1" parent="1">
          <mxGeometry x="611" y="530" width="100" height="15" as="geometry" />
        </mxCell>
        <mxCell id="6hANDe1LfJOE-iJplE4u-77" value="&lt;div&gt;&lt;span&gt;Sample &lt;br&gt;text&lt;/span&gt;&lt;/div&gt;" style="text;html=1;align=left;verticalAlign=middle;resizable=0;points=[];autosize=1;strokeColor=none;fillColor=none;fontSize=28;fontStyle=1" vertex="1" parent="1">
          <mxGeometry x="680" y="665" width="120" height="80" as="geometry" />
        </mxCell>
        <mxCell id="6hANDe1LfJOE-iJplE4u-158" style="edgeStyle=orthogonalEdgeStyle;rounded=0;orthogonalLoop=1;jettySize=auto;html=1;exitX=0.5;exitY=1;exitDx=0;exitDy=0;fontFamily=Helvetica;fontSize=28;fontColor=default;strokeWidth=2;" edge="1" parent="1" source="6hANDe1LfJOE-iJplE4u-83">
          <mxGeometry relative="1" as="geometry">
            <mxPoint x="1090" y="525" as="targetPoint" />
          </mxGeometry>
        </mxCell>
        <mxCell id="6hANDe1LfJOE-iJplE4u-83" value="" style="rounded=1;whiteSpace=wrap;html=1;fontSize=28;fillColor=#E6E6E6;strokeColor=none;" vertex="1" parent="1">
          <mxGeometry x="980" y="185" width="220" height="263" as="geometry" />
        </mxCell>
        <mxCell id="6hANDe1LfJOE-iJplE4u-84" value="" style="shape=tape;whiteSpace=wrap;html=1;strokeWidth=2;size=0.8;strokeColor=none;fillColor=#000099;fontSize=28;" vertex="1" parent="1">
          <mxGeometry x="992.5" y="244" width="195" height="15" as="geometry" />
        </mxCell>
        <mxCell id="6hANDe1LfJOE-iJplE4u-85" value="" style="shape=tape;whiteSpace=wrap;html=1;strokeWidth=2;size=0.8;strokeColor=none;fillColor=#990099;flipH=1;fontSize=28;" vertex="1" parent="1">
          <mxGeometry x="992.5" y="229" width="195" height="15" as="geometry" />
        </mxCell>
        <mxCell id="6hANDe1LfJOE-iJplE4u-86" value="" style="shape=tape;whiteSpace=wrap;html=1;strokeWidth=2;size=0.8;strokeColor=none;fillColor=#CC0066;fontSize=28;" vertex="1" parent="1">
          <mxGeometry x="992.5" y="234" width="195" height="15" as="geometry" />
        </mxCell>
        <mxCell id="6hANDe1LfJOE-iJplE4u-87" value="" style="shape=tape;whiteSpace=wrap;html=1;strokeWidth=2;size=0.8;strokeColor=none;fillColor=#006666;flipH=1;fontSize=28;" vertex="1" parent="1">
          <mxGeometry x="992.5" y="244" width="195" height="15" as="geometry" />
        </mxCell>
        <mxCell id="6hANDe1LfJOE-iJplE4u-91" value="" style="shape=tape;whiteSpace=wrap;html=1;strokeWidth=2;size=0.8;strokeColor=none;fillColor=#000099;fontSize=28;" vertex="1" parent="1">
          <mxGeometry x="992.5" y="289" width="195" height="15" as="geometry" />
        </mxCell>
        <mxCell id="6hANDe1LfJOE-iJplE4u-92" value="" style="shape=tape;whiteSpace=wrap;html=1;strokeWidth=2;size=0.8;strokeColor=none;fillColor=#994C00;flipH=1;fontSize=28;" vertex="1" parent="1">
          <mxGeometry x="992.5" y="274" width="195" height="15" as="geometry" />
        </mxCell>
        <mxCell id="6hANDe1LfJOE-iJplE4u-93" value="" style="shape=tape;whiteSpace=wrap;html=1;strokeWidth=2;size=0.8;strokeColor=none;fillColor=#990000;fontSize=28;" vertex="1" parent="1">
          <mxGeometry x="992.5" y="279" width="195" height="15" as="geometry" />
        </mxCell>
        <mxCell id="6hANDe1LfJOE-iJplE4u-94" value="" style="shape=tape;whiteSpace=wrap;html=1;strokeWidth=2;size=0.8;strokeColor=none;fillColor=#006666;flipH=1;fontSize=28;" vertex="1" parent="1">
          <mxGeometry x="992.5" y="289" width="195" height="15" as="geometry" />
        </mxCell>
        <mxCell id="6hANDe1LfJOE-iJplE4u-95" value="" style="shape=tape;whiteSpace=wrap;html=1;strokeWidth=2;size=0.8;strokeColor=none;fillColor=#f57900;fontSize=28;" vertex="1" parent="1">
          <mxGeometry x="992.5" y="339" width="195" height="15" as="geometry" />
        </mxCell>
        <mxCell id="6hANDe1LfJOE-iJplE4u-96" value="" style="shape=tape;whiteSpace=wrap;html=1;strokeWidth=2;size=0.8;strokeColor=none;fillColor=#990099;flipH=1;fontSize=28;" vertex="1" parent="1">
          <mxGeometry x="992.5" y="324" width="195" height="15" as="geometry" />
        </mxCell>
        <mxCell id="6hANDe1LfJOE-iJplE4u-97" value="" style="shape=tape;whiteSpace=wrap;html=1;strokeWidth=2;size=0.8;strokeColor=none;fillColor=#CC0066;fontSize=28;" vertex="1" parent="1">
          <mxGeometry x="992.5" y="329" width="195" height="15" as="geometry" />
        </mxCell>
        <mxCell id="6hANDe1LfJOE-iJplE4u-98" value="" style="shape=tape;whiteSpace=wrap;html=1;strokeWidth=2;size=0.8;strokeColor=none;fillColor=#006666;flipH=1;fontSize=28;" vertex="1" parent="1">
          <mxGeometry x="992.5" y="339" width="195" height="15" as="geometry" />
        </mxCell>
        <mxCell id="6hANDe1LfJOE-iJplE4u-107" value="" style="shape=tape;whiteSpace=wrap;html=1;strokeWidth=2;size=0.8;strokeColor=none;fillColor=#000099;fontSize=28;" vertex="1" parent="1">
          <mxGeometry x="992.5" y="389" width="195" height="15" as="geometry" />
        </mxCell>
        <mxCell id="6hANDe1LfJOE-iJplE4u-108" value="" style="shape=tape;whiteSpace=wrap;html=1;strokeWidth=2;size=0.8;strokeColor=none;fillColor=#009999;flipH=1;fontSize=28;" vertex="1" parent="1">
          <mxGeometry x="992.5" y="374" width="195" height="15" as="geometry" />
        </mxCell>
        <mxCell id="6hANDe1LfJOE-iJplE4u-109" value="" style="shape=tape;whiteSpace=wrap;html=1;strokeWidth=2;size=0.8;strokeColor=none;fillColor=#009900;fontSize=28;" vertex="1" parent="1">
          <mxGeometry x="992.5" y="379" width="195" height="15" as="geometry" />
        </mxCell>
        <mxCell id="6hANDe1LfJOE-iJplE4u-110" value="" style="shape=tape;whiteSpace=wrap;html=1;strokeWidth=2;size=0.8;strokeColor=none;fillColor=#006666;flipH=1;fontSize=28;" vertex="1" parent="1">
          <mxGeometry x="992.5" y="389" width="195" height="15" as="geometry" />
        </mxCell>
        <mxCell id="6hANDe1LfJOE-iJplE4u-111" value="" style="shape=tape;whiteSpace=wrap;html=1;strokeWidth=2;size=0.8;strokeColor=none;fillColor=#000099;fontSize=28;" vertex="1" parent="1">
          <mxGeometry x="992.5" y="553.5" width="195" height="15" as="geometry" />
        </mxCell>
        <mxCell id="6hANDe1LfJOE-iJplE4u-112" value="" style="shape=tape;whiteSpace=wrap;html=1;strokeWidth=2;size=0.8;strokeColor=none;fillColor=#FF6666;flipH=1;fontSize=28;" vertex="1" parent="1">
          <mxGeometry x="992.5" y="538.5" width="195" height="15" as="geometry" />
        </mxCell>
        <mxCell id="6hANDe1LfJOE-iJplE4u-113" value="" style="shape=tape;whiteSpace=wrap;html=1;strokeWidth=2;size=0.8;strokeColor=none;fillColor=#CC0066;fontSize=28;" vertex="1" parent="1">
          <mxGeometry x="992.5" y="543.5" width="195" height="15" as="geometry" />
        </mxCell>
        <mxCell id="6hANDe1LfJOE-iJplE4u-114" value="" style="shape=tape;whiteSpace=wrap;html=1;strokeWidth=2;size=0.8;strokeColor=none;fillColor=#00CCCC;flipH=1;fontSize=28;" vertex="1" parent="1">
          <mxGeometry x="992.5" y="553.5" width="195" height="15" as="geometry" />
        </mxCell>
        <mxCell id="6hANDe1LfJOE-iJplE4u-115" value="&lt;b style=&quot;font-size: 28px;&quot;&gt;Text &lt;br&gt;corpus&lt;br style=&quot;font-size: 28px;&quot;&gt;&lt;/b&gt;" style="text;html=1;align=left;verticalAlign=middle;resizable=0;points=[];autosize=1;strokeColor=none;fillColor=none;fontSize=28;" vertex="1" parent="1">
          <mxGeometry x="1215" y="224" width="120" height="80" as="geometry" />
        </mxCell>
        <mxCell id="6hANDe1LfJOE-iJplE4u-119" value="&lt;div style=&quot;font-size: 28px;&quot; align=&quot;justify&quot;&gt;&lt;font style=&quot;font-size: 28px;&quot; face=&quot;Times New Roman&quot;&gt;&lt;font style=&quot;font-size: 28px;&quot; color=&quot;#000099&quot;&gt;I wanted to again express my admiration for the people of Hong Kong and &lt;/font&gt;&lt;font style=&quot;font-size: 28px;&quot; color=&quot;#009999&quot;&gt;their strong but peaceful response to &lt;/font&gt;&lt;font style=&quot;font-size: 28px;&quot; color=&quot;#009900&quot;&gt;this proposed encroachment.&lt;/font&gt; &lt;font style=&quot;font-size: 28px;&quot; color=&quot;#ff6666&quot;&gt;I am glad to see their leaders respect&lt;/font&gt;&lt;font style=&quot;font-size: 28px;&quot; color=&quot;#990000&quot;&gt; &lt;/font&gt;&lt;font style=&quot;font-size: 28px;&quot; color=&quot;#000099&quot;&gt;their willingness to stand their ground,&lt;/font&gt; &lt;font style=&quot;font-size: 28px;&quot; color=&quot;#ff6666&quot;&gt;and I hope the city&#39;s authorities will continue to respect the will of the people...&lt;br style=&quot;font-size: 28px;&quot;&gt;&lt;/font&gt;&lt;/font&gt;&lt;/div&gt;" style="text;whiteSpace=wrap;html=1;fontSize=28;" vertex="1" parent="1">
          <mxGeometry x="888.8800000000001" y="593.5" width="300" height="80" as="geometry" />
        </mxCell>
        <mxCell id="6hANDe1LfJOE-iJplE4u-120" value="&lt;div style=&quot;font-size: 28px;&quot; align=&quot;left&quot;&gt;&lt;font style=&quot;font-size: 28px;&quot;&gt;bravery?&lt;/font&gt;&lt;/div&gt;&lt;div style=&quot;font-size: 28px;&quot; align=&quot;left&quot;&gt;&lt;font style=&quot;font-size: 28px;&quot;&gt;&lt;br style=&quot;font-size: 28px;&quot;&gt;&lt;/font&gt;&lt;/div&gt;&lt;div style=&quot;font-size: 28px;&quot; align=&quot;left&quot;&gt;&lt;font style=&quot;font-size: 28px;&quot; color=&quot;#009900&quot;&gt;mistreat-&lt;br&gt;ment?&lt;/font&gt;&lt;/div&gt;&lt;div style=&quot;font-size: 28px;&quot; align=&quot;left&quot;&gt;&lt;font style=&quot;font-size: 28px;&quot;&gt;&lt;br style=&quot;font-size: 28px;&quot;&gt;&lt;/font&gt;&lt;/div&gt;&lt;div style=&quot;font-size: 28px;&quot; align=&quot;left&quot;&gt;&lt;font style=&quot;font-size: 28px;&quot; color=&quot;#ff6666&quot;&gt;respect?&lt;/font&gt;&lt;font style=&quot;font-size: 28px;&quot; color=&quot;#ff6666&quot;&gt;&lt;font style=&quot;font-size: 28px;&quot;&gt;&lt;br style=&quot;font-size: 28px;&quot;&gt;&lt;/font&gt;&lt;/font&gt;&lt;/div&gt;" style="text;html=1;align=left;verticalAlign=middle;resizable=0;points=[];autosize=1;strokeColor=none;fillColor=none;fontSize=28;fontStyle=1;fontColor=#000099;" vertex="1" parent="1">
          <mxGeometry x="1230" y="691" width="140" height="220" as="geometry" />
        </mxCell>
        <mxCell id="6hANDe1LfJOE-iJplE4u-133" value="&lt;div&gt;&lt;b style=&quot;font-size: 28px;&quot;&gt;Sample text&lt;/b&gt;&lt;/div&gt;" style="text;html=1;align=center;verticalAlign=middle;resizable=0;points=[];autosize=1;strokeColor=none;fillColor=none;fontSize=28;" vertex="1" parent="1">
          <mxGeometry x="1101" y="480" width="180" height="50" as="geometry" />
        </mxCell>
        <mxCell id="6hANDe1LfJOE-iJplE4u-135" style="edgeStyle=orthogonalEdgeStyle;rounded=0;orthogonalLoop=1;jettySize=auto;html=1;exitX=0.5;exitY=1;exitDx=0;exitDy=0;fontSize=28;" edge="1" parent="1">
          <mxGeometry relative="1" as="geometry">
            <mxPoint x="1156.13" y="136" as="sourcePoint" />
            <mxPoint x="1156.13" y="136" as="targetPoint" />
          </mxGeometry>
        </mxCell>
        <mxCell id="6hANDe1LfJOE-iJplE4u-144" value="" style="shape=tape;whiteSpace=wrap;html=1;strokeWidth=2;size=0.8;strokeColor=none;fillColor=#000099;" vertex="1" parent="1">
          <mxGeometry x="316" y="755" width="100" height="15" as="geometry" />
        </mxCell>
        <mxCell id="6hANDe1LfJOE-iJplE4u-145" value="" style="shape=tape;whiteSpace=wrap;html=1;strokeWidth=2;size=0.8;strokeColor=none;fillColor=#990099;fontColor=#990099;" vertex="1" parent="1">
          <mxGeometry x="462" y="755" width="100" height="15" as="geometry" />
        </mxCell>
        <mxCell id="6hANDe1LfJOE-iJplE4u-146" value="" style="shape=tape;whiteSpace=wrap;html=1;strokeWidth=2;size=0.8;strokeColor=none;fillColor=#CC0066;" vertex="1" parent="1">
          <mxGeometry x="607" y="755" width="100" height="15" as="geometry" />
        </mxCell>
        <mxCell id="6hANDe1LfJOE-iJplE4u-153" value="&lt;div style=&quot;font-size: 28px;&quot; align=&quot;justify&quot;&gt;&lt;font style=&quot;font-size: 28px;&quot; face=&quot;Times New Roman&quot;&gt;&lt;font style=&quot;font-size: 28px;&quot; color=&quot;#000099&quot;&gt;Protesters have been targeted by brutal police tactics, which has led to bloodshed.&lt;/font&gt; &lt;font style=&quot;font-size: 28px;&quot; color=&quot;#990099&quot;&gt;Hong Kong&#39;s special status within &lt;/font&gt;&lt;/font&gt;&lt;font style=&quot;font-size: 28px;&quot; face=&quot;Times New Roman&quot; color=&quot;#990099&quot;&gt;China has enabled it &lt;/font&gt;&lt;font style=&quot;font-size: 28px;&quot; face=&quot;Times New Roman&quot;&gt;&lt;font style=&quot;font-size: 28px;&quot; color=&quot;#990099&quot;&gt;to become one of the freest and most prosperous societies in the world.&lt;/font&gt; &lt;font style=&quot;font-size: 28px;&quot; color=&quot;#cc0066&quot;&gt;Many protesters carry &lt;/font&gt;&lt;/font&gt;&lt;font style=&quot;font-size: 28px;&quot; face=&quot;Times New Roman&quot; color=&quot;#cc0066&quot;&gt;American flags to affirm their support for ideals that Americans hold dear.&lt;/font&gt;&lt;font style=&quot;font-size: 28px;&quot;&gt;&lt;br&gt;&lt;/font&gt;&lt;/div&gt;" style="text;whiteSpace=wrap;html=1;" vertex="1" parent="1">
          <mxGeometry x="293" y="786" width="524" height="140" as="geometry" />
        </mxCell>
        <mxCell id="6hANDe1LfJOE-iJplE4u-155" style="edgeStyle=orthogonalEdgeStyle;rounded=0;orthogonalLoop=1;jettySize=auto;html=1;exitX=0.5;exitY=1;exitDx=0;exitDy=0;" edge="1" parent="1">
          <mxGeometry relative="1" as="geometry">
            <mxPoint x="1120" y="1047" as="sourcePoint" />
            <mxPoint x="1120" y="1047" as="targetPoint" />
          </mxGeometry>
        </mxCell>
        <mxCell id="eQvOFtFJdwZNdT1xDiFq-1" value="&lt;b style=&quot;font-size: 36px;&quot;&gt;Constructed texts&lt;br style=&quot;font-size: 36px;&quot;&gt;&lt;/b&gt;" style="text;html=1;align=center;verticalAlign=middle;resizable=0;points=[];autosize=1;strokeColor=none;fillColor=none;fontSize=36;" vertex="1" parent="1">
          <mxGeometry x="390" y="107.5" width="330" height="60" as="geometry" />
        </mxCell>
        <mxCell id="eQvOFtFJdwZNdT1xDiFq-2" value="&lt;b style=&quot;font-size: 36px;&quot;&gt;Natural texts&lt;br style=&quot;font-size: 36px;&quot;&gt;&lt;/b&gt;" style="text;html=1;align=center;verticalAlign=middle;resizable=0;points=[];autosize=1;strokeColor=none;fillColor=none;fontSize=36;" vertex="1" parent="1">
          <mxGeometry x="1000" y="107.5" width="240" height="60" as="geometry" />
        </mxCell>
      </root>
    </mxGraphModel>
  </diagram>
  <diagram id="fJphgA5TtR9L8Is_CH6N" name="clf_vs_lm">
    <mxGraphModel dx="2012" dy="932" grid="1" gridSize="10" guides="1" tooltips="1" connect="1" arrows="1" fold="1" page="1" pageScale="1" pageWidth="1800" pageHeight="1500" math="1" shadow="0">
      <root>
        <mxCell id="0" />
        <mxCell id="1" parent="0" />
        <mxCell id="HARoouObjQOdhKFLhrAq-2" value="" style="rounded=1;whiteSpace=wrap;html=1;fontFamily=Helvetica;fontSize=28;fontColor=default;fillColor=#F7F7F7;gradientColor=none;movable=1;resizable=1;rotatable=1;deletable=1;editable=1;locked=0;connectable=1;strokeColor=none;" vertex="1" parent="1">
          <mxGeometry y="840" width="1000" height="760" as="geometry" />
        </mxCell>
        <mxCell id="v-k1qujhMf7uF0srrSFl-34" value="" style="rounded=1;whiteSpace=wrap;html=1;fontFamily=Helvetica;fontSize=28;fontColor=default;fillColor=#F7f7f7;gradientColor=none;strokeColor=none;" vertex="1" parent="1">
          <mxGeometry y="80" width="1000" height="740" as="geometry" />
        </mxCell>
        <mxCell id="v-k1qujhMf7uF0srrSFl-25" style="edgeStyle=orthogonalEdgeStyle;rounded=0;orthogonalLoop=1;jettySize=auto;html=1;exitX=0.5;exitY=1;exitDx=0;exitDy=0;entryX=0.5;entryY=0;entryDx=0;entryDy=0;fontFamily=Helvetica;fontSize=28;fontColor=default;strokeWidth=2;" edge="1" parent="1" source="p9Rx9DtH28gRcvjCcw9E-1" target="p9Rx9DtH28gRcvjCcw9E-2">
          <mxGeometry relative="1" as="geometry" />
        </mxCell>
        <mxCell id="p9Rx9DtH28gRcvjCcw9E-1" value="&lt;div style=&quot;line-height: 80%;&quot;&gt;&lt;font face=&quot;Times New Roman&quot;&gt;.&lt;/font&gt;&lt;/div&gt;&lt;div style=&quot;line-height: 80%;&quot;&gt;&lt;font face=&quot;Times New Roman&quot;&gt;.&lt;/font&gt;&lt;/div&gt;&lt;div style=&quot;line-height: 80%;&quot;&gt;&lt;font face=&quot;Times New Roman&quot;&gt;.&lt;br&gt;&lt;/font&gt;&lt;/div&gt;&lt;div&gt;&lt;font face=&quot;Times New Roman&quot;&gt;This is the time of year when we give thanks for the warmth and love that surrounds us...&lt;/font&gt;&lt;/div&gt;&lt;div style=&quot;line-height: 80%;&quot;&gt;&lt;font face=&quot;Times New Roman&quot;&gt;.&lt;/font&gt;&lt;/div&gt;&lt;div style=&quot;line-height: 80%;&quot;&gt;&lt;font face=&quot;Times New Roman&quot;&gt;.&lt;/font&gt;&lt;/div&gt;&lt;div style=&quot;line-height: 80%;&quot;&gt;&lt;font face=&quot;Times New Roman&quot;&gt;.&lt;br&gt;&lt;/font&gt;&lt;/div&gt;" style="rounded=1;whiteSpace=wrap;html=1;fontFamily=Helvetica;fontSize=28;fillColor=#E6e6e6;strokeColor=none;" vertex="1" parent="1">
          <mxGeometry x="232.5" y="150" width="310" height="340" as="geometry" />
        </mxCell>
        <mxCell id="t22h2IzhsU54otqeKvMx-15" style="edgeStyle=orthogonalEdgeStyle;rounded=0;orthogonalLoop=1;jettySize=auto;html=1;exitX=0.5;exitY=1;exitDx=0;exitDy=0;entryX=0.75;entryY=0;entryDx=0;entryDy=0;fontFamily=Helvetica;fontSize=28;fontColor=default;strokeWidth=2;" edge="1" parent="1" source="p9Rx9DtH28gRcvjCcw9E-2" target="v-k1qujhMf7uF0srrSFl-4">
          <mxGeometry relative="1" as="geometry" />
        </mxCell>
        <mxCell id="p9Rx9DtH28gRcvjCcw9E-2" value="&lt;b&gt;Classifier&lt;/b&gt;" style="rounded=1;whiteSpace=wrap;html=1;fontFamily=Helvetica;fontSize=28;fillColor=#7EA6E0;strokeColor=none;" vertex="1" parent="1">
          <mxGeometry x="302.5" y="550" width="170" height="60" as="geometry" />
        </mxCell>
        <mxCell id="v-k1qujhMf7uF0srrSFl-30" style="edgeStyle=orthogonalEdgeStyle;rounded=0;orthogonalLoop=1;jettySize=auto;html=1;exitX=0.5;exitY=1;exitDx=0;exitDy=0;entryX=0.5;entryY=0;entryDx=0;entryDy=0;fontFamily=Helvetica;fontSize=28;fontColor=default;strokeWidth=2;strokeColor=default;" edge="1" parent="1" source="v-k1qujhMf7uF0srrSFl-2" target="v-k1qujhMf7uF0srrSFl-6">
          <mxGeometry relative="1" as="geometry" />
        </mxCell>
        <mxCell id="v-k1qujhMf7uF0srrSFl-2" value="&lt;b&gt;LLM&lt;/b&gt;" style="rounded=1;whiteSpace=wrap;html=1;fontFamily=Helvetica;fontSize=28;fillColor=#E5CCFF;strokeColor=none;" vertex="1" parent="1">
          <mxGeometry x="210" y="1350" width="130" height="60" as="geometry" />
        </mxCell>
        <mxCell id="t22h2IzhsU54otqeKvMx-6" style="edgeStyle=orthogonalEdgeStyle;rounded=1;orthogonalLoop=1;jettySize=auto;html=1;exitX=1;exitY=0.5;exitDx=0;exitDy=0;fontFamily=Helvetica;fontSize=28;fontColor=default;strokeWidth=2;" edge="1" parent="1" source="v-k1qujhMf7uF0srrSFl-4" target="sjoQXPGx4brC1cvZb0Yk-9">
          <mxGeometry relative="1" as="geometry" />
        </mxCell>
        <mxCell id="v-k1qujhMf7uF0srrSFl-4" value="&lt;div&gt;$$\hat{P}(C=T|X^R), \hat{P}(C=R|X^R)$$&lt;/div&gt;" style="rounded=1;whiteSpace=wrap;html=1;fontFamily=Helvetica;fontSize=28;fillColor=#cce5ff;strokeColor=none;" vertex="1" parent="1">
          <mxGeometry x="50" y="668.75" width="450" height="60" as="geometry" />
        </mxCell>
        <mxCell id="v8DGtMgOPzdggbD5UnkG-2" style="edgeStyle=orthogonalEdgeStyle;rounded=1;orthogonalLoop=1;jettySize=auto;html=1;exitX=0.5;exitY=1;exitDx=0;exitDy=0;entryX=0;entryY=0.5;entryDx=0;entryDy=0;fontFamily=Helvetica;fontSize=28;fontColor=default;strokeWidth=2;" edge="1" parent="1" source="v-k1qujhMf7uF0srrSFl-6" target="sjoQXPGx4brC1cvZb0Yk-8">
          <mxGeometry relative="1" as="geometry">
            <Array as="points">
              <mxPoint x="275" y="1550" />
              <mxPoint x="590" y="1550" />
              <mxPoint x="590" y="1491" />
            </Array>
          </mxGeometry>
        </mxCell>
        <mxCell id="v-k1qujhMf7uF0srrSFl-6" value="&lt;div&gt;$$\hat{P}^T(X^R)$$&lt;/div&gt;" style="rounded=1;whiteSpace=wrap;html=1;fontFamily=Helvetica;fontSize=28;fillColor=#F8EBFF;strokeColor=none;" vertex="1" parent="1">
          <mxGeometry x="205" y="1461.25" width="140" height="60" as="geometry" />
        </mxCell>
        <mxCell id="t22h2IzhsU54otqeKvMx-12" style="edgeStyle=orthogonalEdgeStyle;rounded=1;orthogonalLoop=1;jettySize=auto;html=1;exitX=1;exitY=0.5;exitDx=0;exitDy=0;entryX=0;entryY=0.5;entryDx=0;entryDy=0;fontFamily=Helvetica;fontSize=28;fontColor=default;strokeWidth=2;" edge="1" parent="1" source="v-k1qujhMf7uF0srrSFl-7" target="sjoQXPGx4brC1cvZb0Yk-8">
          <mxGeometry relative="1" as="geometry" />
        </mxCell>
        <mxCell id="v-k1qujhMf7uF0srrSFl-7" value="&lt;div&gt;$$\hat{P}^R(X^R)$$&lt;/div&gt;" style="rounded=1;whiteSpace=wrap;html=1;fontFamily=Helvetica;fontSize=28;fillColor=#F8EBFF;strokeColor=none;" vertex="1" parent="1">
          <mxGeometry x="425" y="1461.25" width="140" height="60" as="geometry" />
        </mxCell>
        <mxCell id="v-k1qujhMf7uF0srrSFl-31" style="edgeStyle=orthogonalEdgeStyle;rounded=0;orthogonalLoop=1;jettySize=auto;html=1;exitX=0.5;exitY=1;exitDx=0;exitDy=0;entryX=0.5;entryY=0;entryDx=0;entryDy=0;fontFamily=Helvetica;fontSize=28;fontColor=default;strokeWidth=2;strokeColor=default;" edge="1" parent="1" source="v-k1qujhMf7uF0srrSFl-14" target="v-k1qujhMf7uF0srrSFl-7">
          <mxGeometry relative="1" as="geometry" />
        </mxCell>
        <mxCell id="v-k1qujhMf7uF0srrSFl-14" value="&lt;b&gt;LLM&lt;/b&gt;" style="rounded=1;whiteSpace=wrap;html=1;fontFamily=Helvetica;fontSize=28;fillColor=#E5CCFF;strokeColor=none;" vertex="1" parent="1">
          <mxGeometry x="430" y="1350" width="130" height="60" as="geometry" />
        </mxCell>
        <mxCell id="v-k1qujhMf7uF0srrSFl-15" value="$$P^R$$" style="text;html=1;align=center;verticalAlign=middle;resizable=0;points=[];autosize=1;strokeColor=none;fillColor=none;fontSize=28;fontFamily=Helvetica;fontColor=default;" vertex="1" parent="1">
          <mxGeometry x="512.5" y="278" width="140" height="50" as="geometry" />
        </mxCell>
        <mxCell id="v-k1qujhMf7uF0srrSFl-19" value="&lt;div style=&quot;font-size: 22px;&quot;&gt;$$(X_j,Y_j) \sim P^T$$&lt;/div&gt;" style="rounded=0;whiteSpace=wrap;html=1;fontFamily=Helvetica;fontSize=28;fillColor=#e6e6e6;strokeColor=none;" vertex="1" parent="1">
          <mxGeometry x="146" y="530" width="170" height="50" as="geometry" />
        </mxCell>
        <mxCell id="v-k1qujhMf7uF0srrSFl-20" value="&lt;div style=&quot;font-size: 22px;&quot;&gt;$$(X_j,Y_j) \sim P^R$$&lt;/div&gt;" style="rounded=0;whiteSpace=wrap;html=1;fontFamily=Helvetica;fontSize=28;fillColor=#e6e6e6;strokeColor=none;" vertex="1" parent="1">
          <mxGeometry x="460" y="530" width="170" height="50" as="geometry" />
        </mxCell>
        <mxCell id="v-k1qujhMf7uF0srrSFl-28" style="edgeStyle=orthogonalEdgeStyle;rounded=1;orthogonalLoop=1;jettySize=auto;html=1;exitX=0.5;exitY=1;exitDx=0;exitDy=0;entryX=0.5;entryY=0;entryDx=0;entryDy=0;fontFamily=Helvetica;fontSize=28;fontColor=default;strokeWidth=2;strokeColor=default;" edge="1" parent="1" source="v-k1qujhMf7uF0srrSFl-21" target="v-k1qujhMf7uF0srrSFl-2">
          <mxGeometry relative="1" as="geometry">
            <Array as="points">
              <mxPoint x="385" y="1310" />
              <mxPoint x="275" y="1310" />
            </Array>
          </mxGeometry>
        </mxCell>
        <mxCell id="v-k1qujhMf7uF0srrSFl-29" style="edgeStyle=orthogonalEdgeStyle;rounded=1;orthogonalLoop=1;jettySize=auto;html=1;exitX=0.5;exitY=1;exitDx=0;exitDy=0;entryX=0.5;entryY=0;entryDx=0;entryDy=0;fontFamily=Helvetica;fontSize=28;fontColor=default;strokeWidth=2;strokeColor=default;" edge="1" parent="1" source="v-k1qujhMf7uF0srrSFl-21" target="v-k1qujhMf7uF0srrSFl-14">
          <mxGeometry relative="1" as="geometry">
            <Array as="points">
              <mxPoint x="385" y="1310" />
              <mxPoint x="495" y="1310" />
            </Array>
          </mxGeometry>
        </mxCell>
        <mxCell id="v-k1qujhMf7uF0srrSFl-21" value="&lt;div style=&quot;line-height: 80%;&quot;&gt;&lt;font face=&quot;Times New Roman&quot;&gt;.&lt;/font&gt;&lt;/div&gt;&lt;div style=&quot;line-height: 80%;&quot;&gt;&lt;font face=&quot;Times New Roman&quot;&gt;.&lt;/font&gt;&lt;/div&gt;&lt;div style=&quot;line-height: 80%;&quot;&gt;&lt;font face=&quot;Times New Roman&quot;&gt;.&lt;br&gt;&lt;/font&gt;&lt;/div&gt;&lt;div&gt;&lt;font face=&quot;Times New Roman&quot;&gt;This is the time of year when we give thanks for the warmth and love that surrounds us...&lt;/font&gt;&lt;/div&gt;&lt;div style=&quot;line-height: 80%;&quot;&gt;&lt;font face=&quot;Times New Roman&quot;&gt;.&lt;/font&gt;&lt;/div&gt;&lt;div style=&quot;line-height: 80%;&quot;&gt;&lt;font face=&quot;Times New Roman&quot;&gt;.&lt;/font&gt;&lt;/div&gt;&lt;div style=&quot;line-height: 80%;&quot;&gt;&lt;font face=&quot;Times New Roman&quot;&gt;.&lt;br&gt;&lt;/font&gt;&lt;/div&gt;" style="rounded=1;whiteSpace=wrap;html=1;fontFamily=Helvetica;fontSize=28;fillColor=#e6e6e6;strokeColor=none;" vertex="1" parent="1">
          <mxGeometry x="230" y="910" width="310" height="340" as="geometry" />
        </mxCell>
        <mxCell id="v-k1qujhMf7uF0srrSFl-22" value="$$P^R$$" style="text;html=1;align=center;verticalAlign=middle;resizable=0;points=[];autosize=1;strokeColor=none;fillColor=none;fontSize=28;fontFamily=Helvetica;fontColor=default;" vertex="1" parent="1">
          <mxGeometry x="510" y="1038" width="140" height="50" as="geometry" />
        </mxCell>
        <mxCell id="HARoouObjQOdhKFLhrAq-1" value="&lt;b&gt;Classifier approach&lt;br&gt;&lt;/b&gt;" style="text;html=1;align=center;verticalAlign=middle;resizable=0;points=[];autosize=1;strokeColor=none;fillColor=none;fontSize=36;" vertex="1" parent="1">
          <mxGeometry x="320" y="80" width="360" height="60" as="geometry" />
        </mxCell>
        <mxCell id="HARoouObjQOdhKFLhrAq-3" value="&lt;b&gt;Language modeling approach&lt;br&gt;&lt;/b&gt;" style="text;html=1;align=center;verticalAlign=middle;resizable=0;points=[];autosize=1;strokeColor=none;fillColor=none;fontSize=36;" vertex="1" parent="1">
          <mxGeometry x="230" y="840" width="540" height="60" as="geometry" />
        </mxCell>
        <mxCell id="sjoQXPGx4brC1cvZb0Yk-1" value="&lt;p style=&quot;line-height: 70%;&quot; align=&quot;center&quot;&gt;&lt;font style=&quot;font-size: 24px;&quot; face=&quot;Times New Roman&quot;&gt;You are writing a statement with positive emotions...&lt;/font&gt;&lt;/p&gt;" style="rounded=0;whiteSpace=wrap;html=1;fontFamily=Helvetica;fontSize=28;fillColor=#e6e6e6;strokeColor=none;align=center;" vertex="1" parent="1">
          <mxGeometry x="530" y="1290" width="210" height="80" as="geometry" />
        </mxCell>
        <mxCell id="sjoQXPGx4brC1cvZb0Yk-5" value="&lt;p style=&quot;line-height: 70%;&quot; align=&quot;center&quot;&gt;&lt;font style=&quot;font-size: 24px;&quot; face=&quot;Times New Roman&quot;&gt;You are writing a statement with negative emotions...&lt;/font&gt;&lt;/p&gt;" style="rounded=0;whiteSpace=wrap;html=1;fontFamily=Helvetica;fontSize=28;fillColor=#e6e6e6;strokeColor=none;align=center;" vertex="1" parent="1">
          <mxGeometry x="20" y="1290" width="210" height="80" as="geometry" />
        </mxCell>
        <mxCell id="sjoQXPGx4brC1cvZb0Yk-8" value="&lt;div align=&quot;center&quot;&gt;$$\frac{\hat{\mathbb{d}P}^T}{\hat{\mathbb{d}P}^R} \propto \frac{\hat{P}^T(X^R)}{\hat{P}^R(X^R)}$$&lt;/div&gt;" style="text;whiteSpace=wrap;html=1;fontSize=28;fontFamily=Helvetica;align=center;fillColor=#D5E8D4;rounded=1;strokeColor=none;" vertex="1" parent="1">
          <mxGeometry x="630" y="1427.19" width="295" height="128.12" as="geometry" />
        </mxCell>
        <mxCell id="sjoQXPGx4brC1cvZb0Yk-9" value="&lt;div align=&quot;center&quot;&gt;$$\frac{\hat{\mathbb{d}P}^T}{\hat{\mathbb{d}P}^R} \propto \frac{\hat{P}(C=T|X^R)}{\hat{P}(C=|X^R)}$$&lt;/div&gt;" style="text;whiteSpace=wrap;html=1;fontSize=28;fontFamily=Helvetica;align=center;rounded=1;fillColor=#D5E8D4;strokeColor=none;" vertex="1" parent="1">
          <mxGeometry x="592.5" y="631.56" width="370" height="134.37" as="geometry" />
        </mxCell>
        <mxCell id="t22h2IzhsU54otqeKvMx-8" style="edgeStyle=orthogonalEdgeStyle;rounded=0;orthogonalLoop=1;jettySize=auto;html=1;exitX=0.5;exitY=1;exitDx=0;exitDy=0;fontFamily=Helvetica;fontSize=28;fontColor=default;strokeColor=default;" edge="1" parent="1">
          <mxGeometry relative="1" as="geometry">
            <mxPoint x="500" y="1571.25" as="sourcePoint" />
            <mxPoint x="500" y="1571.25" as="targetPoint" />
          </mxGeometry>
        </mxCell>
      </root>
    </mxGraphModel>
  </diagram>
  <diagram id="HW_VzO-M4WUKA5Qvatba" name="data">
    <mxGraphModel dx="2012" dy="932" grid="1" gridSize="10" guides="1" tooltips="1" connect="1" arrows="1" fold="1" page="1" pageScale="1" pageWidth="1800" pageHeight="1500" math="0" shadow="0">
      <root>
        <mxCell id="0" />
        <mxCell id="1" parent="0" />
        <mxCell id="EzbZ_DS5-s1uHROi3zeS-1" value="&lt;p style=&quot;line-height: 80%;&quot;&gt;&lt;font style=&quot;font-size: 24px;&quot; face=&quot;Times New Roman&quot;&gt;During George H.W. Bush&#39;s administration, Congress passed the Hong Kong Policy Act, which commits the United States to preserving Hong Kong&#39;s special status. The protesters regularly wave American flags to affirm their support for ideals that Americans hold dear.&lt;br&gt;&lt;br&gt;&lt;br&gt;&lt;/font&gt;&lt;/p&gt;" style="rounded=0;whiteSpace=wrap;html=1;fontFamily=Helvetica;fontSize=28;fontColor=default;fillColor=none;gradientColor=none;align=left;" vertex="1" parent="1">
          <mxGeometry x="400" y="440" width="555" height="190" as="geometry" />
        </mxCell>
        <mxCell id="EzbZ_DS5-s1uHROi3zeS-5" value="&lt;p style=&quot;line-height: 80%;&quot;&gt;&lt;font style=&quot;font-size: 24px;&quot; face=&quot;Times New Roman&quot;&gt;Since June, millions of people in Hong Kong have taken to the streets protesting the erosion of their rights and freedoms. Hong Kong was supposed to maintain a high degree of autonomy after China regained sovereignty over the territory in 1997. This wasn&#39;t just a verbal understanding. This was in the treaty that China signed with Great Britain.&lt;/font&gt;&lt;/p&gt;" style="rounded=0;whiteSpace=wrap;html=1;fontFamily=Helvetica;fontSize=28;fontColor=default;fillColor=none;gradientColor=none;align=left;" vertex="1" parent="1">
          <mxGeometry x="955" y="440" width="555" height="190" as="geometry" />
        </mxCell>
        <mxCell id="EzbZ_DS5-s1uHROi3zeS-6" value="&lt;p style=&quot;line-height: 80%;&quot;&gt;&lt;font style=&quot;font-size: 24px;&quot; face=&quot;Times New Roman&quot;&gt;During George H.W. Bush&#39;s administration, Congress passed the Hong Kong Policy Act, which commits the United States to preserving Hong Kong&#39;s special status. The protesters regularly wave American flags to affirm their support for ideals that Americans hold dear.&lt;br&gt;&lt;br&gt;&lt;br&gt;&lt;/font&gt;&lt;/p&gt;" style="rounded=0;whiteSpace=wrap;html=1;fontFamily=Helvetica;fontSize=28;fontColor=default;fillColor=none;gradientColor=none;align=left;" vertex="1" parent="1">
          <mxGeometry x="400" y="630" width="555" height="190" as="geometry" />
        </mxCell>
        <mxCell id="EzbZ_DS5-s1uHROi3zeS-7" value="&lt;p style=&quot;line-height: 80%;&quot;&gt;&lt;font style=&quot;font-size: 24px;&quot; face=&quot;Times New Roman&quot;&gt;During George H.W. Bush&#39;s administration, Congress passed the Hong Kong Policy Act, which commits the United States to preserving Hong Kong&#39;s special status. The protesters regularly wave American flags to affirm their support for ideals that Americans hold dear.&lt;br&gt;&lt;br&gt;&lt;br&gt;&lt;/font&gt;&lt;/p&gt;" style="rounded=0;whiteSpace=wrap;html=1;fontFamily=Helvetica;fontSize=28;fontColor=default;fillColor=none;gradientColor=none;align=left;" vertex="1" parent="1">
          <mxGeometry x="955" y="630" width="555" height="190" as="geometry" />
        </mxCell>
        <mxCell id="EzbZ_DS5-s1uHROi3zeS-9" value="Hong Kong" style="text;html=1;align=center;verticalAlign=middle;resizable=0;points=[];autosize=1;strokeColor=none;fillColor=none;fontSize=28;fontFamily=Helvetica;fontColor=default;" vertex="1" parent="1">
          <mxGeometry x="210" y="518" width="160" height="50" as="geometry" />
        </mxCell>
      </root>
    </mxGraphModel>
  </diagram>
</mxfile>
